<?xml version="1.0" encoding="UTF-8"?>
<svg width="14px" height="14px" viewBox="0 0 14 14" version="1.1" xmlns="http://www.w3.org/2000/svg" xmlns:xlink="http://www.w3.org/1999/xlink">
    <!-- Generator: Sketch 46.2 (44496) - http://www.bohemiancoding.com/sketch -->
    <title>ic_hide_active</title>
    <desc>Created with Sketch.</desc>
    <defs>
        <polygon id="path-1" points="14.25 4.8075 13.1925 3.75 9 7.9425 4.8075 3.75 3.75 4.8075 7.9425 9 3.75 13.1925 4.8075 14.25 9 10.0575 13.1925 14.25 14.25 13.1925 10.0575 9"></polygon>
    </defs>
    <g id="Page-1" stroke="none" stroke-width="1" fill="none" fill-rule="evenodd">
        <g id="ic_hide_active" transform="translate(-2.000000, -2.000000)">
            <polygon id="Bounds" points="0 0 18 0 18 18 0 18"></polygon>
            <g id="Icon">
                <use fill="#EC5252" fill-rule="evenodd" xlink:href="#path-1"></use>
                <path stroke="#EC5252" stroke-width="1" d="M10.7646068,9 L14.9571068,13.1925 L13.1925,14.9571068 L9,10.7646068 L4.8075,14.9571068 L3.04289322,13.1925 L7.23539322,9 L3.04289322,4.8075 L4.8075,3.04289322 L9,7.23539322 L13.1925,3.04289322 L14.9571068,4.8075 L10.7646068,9 Z"></path>
            </g>
        </g>
    </g>
</svg>