<svg xmlns="http://www.w3.org/2000/svg" viewBox="0 0 71.67 53.33">
  <path fill="#00b4cd" d="M23.47 38.76v-4.92H22v-1.07h4.1v1.07h-1.48v4.92h-1.15zM28.37 36.81v-4h1.16v4a1.06 1.06 0 00.28.77 1.09 1.09 0 00.82.29 1.11 1.11 0 00.82-.28 1 1 0 00.28-.76v-4h1.16v4a1.93 1.93 0 01-.62 1.54 2.78 2.78 0 01-3.28 0 1.94 1.94 0 01-.62-1.56zM35.57 38.76v-6h2a2.6 2.6 0 011 .18 2.54 2.54 0 01.82.53 2.45 2.45 0 01.59.94 3.82 3.82 0 01.22 1.34 4.15 4.15 0 01-.22 1.43 2.19 2.19 0 01-.61.94 2.55 2.55 0 01-.83.48 3 3 0 01-1 .15h-2zm1.16-1.07h.8a1.8 1.8 0 00.54-.07 1.11 1.11 0 00.44-.27 1.29 1.29 0 00.32-.59 3.77 3.77 0 00.11-1 2.31 2.31 0 00-.37-1.46 1.2 1.2 0 00-1-.46h-.85v3.85zM42.41 38.76v-6h1.16v6h-1.16zM18.54 35.24a10.08 10.08 0 01-1.28-.49.44.44 0 01-.26-.41.55.55 0 01.22-.45 1.07 1.07 0 01.66-.17 1.05 1.05 0 011.06.72l1.13-.3a1.77 1.77 0 00-.73-1.07 2.56 2.56 0 00-1.46-.41 2.09 2.09 0 00-1.48.5 1.58 1.58 0 00-.54 1.2 1.44 1.44 0 00.39 1 3.06 3.06 0 001.32.71 5.66 5.66 0 011.27.5.63.63 0 01.28.55.57.57 0 01-.29.52 1.5 1.5 0 01-.78.18 1 1 0 01-.83-.31 1.57 1.57 0 01-.22-.86l-1.07.29a2.1 2.1 0 00.54 1.41 2.21 2.21 0 001.65.53 2.35 2.35 0 001.6-.52 1.67 1.67 0 00.6-1.32A1.52 1.52 0 0019.9 36a3.4 3.4 0 00-1.36-.76zM55.55 35.24a10.08 10.08 0 01-1.28-.49.44.44 0 01-.27-.41.55.55 0 01.22-.45 1.07 1.07 0 01.66-.17 1.05 1.05 0 011.06.72l1.13-.3a1.77 1.77 0 00-.73-1.07 2.56 2.56 0 00-1.46-.41 2.09 2.09 0 00-1.48.5 1.58 1.58 0 00-.54 1.2 1.44 1.44 0 00.39 1 3.06 3.06 0 001.32.71 5.66 5.66 0 011.27.5.63.63 0 01.28.55.57.57 0 01-.29.52 1.5 1.5 0 01-.78.18 1 1 0 01-.83-.31 1.57 1.57 0 01-.22-.86l-1.07.29a2.1 2.1 0 00.54 1.41 2.21 2.21 0 001.65.53 2.35 2.35 0 001.6-.52 1.67 1.67 0 00.6-1.32 1.52 1.52 0 00-.41-1.04 3.4 3.4 0 00-1.36-.76zM50 38.1a2.18 2.18 0 01-3.35 0 3.88 3.88 0 01-.65-2.43 3.5 3.5 0 01.63-2.26 2.2 2.2 0 013.35 0 3.5 3.5 0 01.63 2.26A3.89 3.89 0 0150 38.1zm-2.55-.76a1 1 0 001.74 0 3.58 3.58 0 00.28-1.67 3 3 0 00-.29-1.5 1 1 0 00-1.72 0 3 3 0 00-.29 1.5 3.57 3.57 0 00.3 1.67zM28.85 14.11l-1.8 9.53h-.06l-3.22-9.53h-1.43l-3.22 9.53h-.06l-1.8-9.53h-2.69l2.73 14.02h2.8l2.88-8.61h.15l2.88 8.61h2.8l2.73-14.02h-2.69zM39.42 16.55h-2.1v4.18h-3.77v2h3.77v4.04h2.1v-4.04h3.77v-2h-3.77v-4.18zM54.29 22.66a4.07 4.07 0 003-4.09 4.18 4.18 0 00-1.33-3.25 5 5 0 00-3.49-1.21h-5.73v14h2.7v-5.19h2.08l2.82 5.21h2.92zm-2.08-2.08h-2.77v-4h2.76q2.3 0 2.3 2t-2.29 2z" />
</svg>