<svg xmlns="http://www.w3.org/2000/svg" fill="none" viewBox="0 0 20 20">
  <path fill="#4D5A6A" fill-rule="evenodd" d="M6.63 3.75A3.37 3.37 0 003.25 7.2c0 1.2.52 2.34 1.6 3.67a47.43 47.43 0 004.57 4.58l.58.53.58-.53c1.94-1.8 3.5-3.24 4.58-4.58 1.07-1.33 1.59-2.48 1.59-3.67a3.37 3.37 0 00-3.38-3.45c-1.07 0-2.11.51-2.8 1.32a.75.75 0 01-1.14 0 3.72 3.72 0 00-2.8-1.32zM1.75 7.2a4.87 4.87 0 014.88-4.95A5.2 5.2 0 0110 3.53a5.2 5.2 0 013.38-1.28 4.87 4.87 0 014.87 4.95c0 1.68-.75 3.15-1.92 4.6a48.13 48.13 0 01-4.7 4.7l-.03.05-1.1 1a.75.75 0 01-1 0l-1.14-1.04a48.13 48.13 0 01-4.69-4.7C2.5 10.35 1.75 8.88 1.75 7.2z" clip-rule="evenodd"/>
</svg>
